# xmcd
#
# Track frame offsets: 
#        182
#        29835
#        43127
#        53595
#        74635
#        101940
#        118752
#        141772
#        170590
#        180600
#        191832
#        215355
#        233277
#        258255
#        280535
#        291990
#
# Disc length: 4049 seconds
#
# Revision: 5
# Processed by: cddbd v1.5.2PL0 Copyright (c) Steve Scherf et al.
# Submitted via: ExactAudioCopy v1.0b4
#
DISCID=f80fcf10
DTITLE=Arild Andersen - Sagn
DYEAR=1991
DGENRE=Jazz
TTITLE0=Sagn
TTITLE1=Gardsjenta
TTITLE2=Eisemo
TTITLE3=Toll
TTITLE4=Draum
TTITLE5=Laurdagskveld
TTITLE6=Tjovane
TTITLE7=Sorgmild
TTITLE8=Svarm
TTITLE9=Gamlestev
TTITLE10=Reven
TTITLE11=Nystev
TTITLE12=Lussi
TTITLE13=Rysen
TTITLE14=Belare
TTITLE15=Sagn (2)
EXTD=
EXTT0=
EXTT1=
EXTT2=
EXTT3=
EXTT4=
EXTT5=
EXTT6=
EXTT7=
EXTT8=
EXTT9=
EXTT10=
EXTT11=
EXTT12=
EXTT13=
EXTT14=
EXTT15=
PLAYORDER=
